<svg width="24" height="24" viewBox="0 0 24 24" fill="none" xmlns="http://www.w3.org/2000/svg">
<path fill-rule="evenodd" clip-rule="evenodd" d="M16.335 2.0002H7.66598C4.2684 2.0002 2.00098 4.43279 2.00098 7.9162V16.0842C2.00098 19.5709 4.26235 22.0002 7.66598 22.0002H16.334C19.7386 22.0002 22.001 19.5709 22.001 16.0842V7.9162C22.001 4.4297 19.7388 2.0002 16.335 2.0002ZM7.66598 3.5002H16.335C18.8855 3.5002 20.501 5.23516 20.501 7.9162V16.0842C20.501 18.7654 18.8854 20.5002 16.334 20.5002H7.66598C5.11574 20.5002 3.50098 18.7655 3.50098 16.0842V7.9162C3.50098 5.23857 5.12132 3.5002 7.66598 3.5002ZM9.0712 9.06241C9.3375 8.79617 9.75416 8.77201 10.0478 8.9899L10.1319 9.06252L11.9993 10.9304L13.8652 9.06456C14.1581 8.77167 14.633 8.77167 14.9258 9.06456C15.1921 9.33083 15.2163 9.74749 14.9985 10.0411L14.9258 10.1252L13.0599 11.9912L14.9279 13.8595C15.2207 14.1524 15.2207 14.6273 14.9278 14.9202C14.6615 15.1864 14.2448 15.2106 13.9512 14.9927L13.8671 14.9201L11.9992 13.0518L10.1338 14.9172C9.84095 15.2101 9.36608 15.2101 9.07319 14.9172C8.80692 14.651 8.78271 14.2343 9.00057 13.9407L9.07319 13.8566L10.9387 11.9911L9.07109 10.1231C8.77823 9.83015 8.77828 9.35528 9.0712 9.06241Z" fill="#D3A7FF"/>
</svg>
