<svg width="108" height="70" viewBox="0 0 108 70" fill="none" xmlns="http://www.w3.org/2000/svg">
<g filter="url(#filter0_i_108_12)">
<path d="M9.78792 27.7938C10.7005 28.1423 11.4223 28.6981 11.9532 29.4614C12.5008 30.2246 12.7746 31.0958 12.7746 32.0747C12.7746 33.3855 12.31 34.5055 11.3808 35.4347C10.4516 36.3639 9.33163 36.8285 8.02082 36.8285H0.504412V19.4063H7.44838C8.70941 19.4063 9.78792 19.8543 10.6839 20.7503C11.5799 21.6463 12.0279 22.7248 12.0279 23.9859C12.0279 24.8155 11.8288 25.5704 11.4306 26.2507C11.0324 26.9144 10.4848 27.4288 9.78792 27.7938ZM7.44838 20.6508H1.82352V27.321H7.44838C8.34438 27.321 9.10763 26.9974 9.73815 26.3503C10.3853 25.67 10.7088 24.8819 10.7088 23.9859C10.7088 23.0733 10.3853 22.2934 9.73815 21.6463C9.12422 20.9826 8.36097 20.6508 7.44838 20.6508ZM1.82352 35.584H8.02082C8.95 35.584 9.75474 35.2439 10.435 34.5636C11.1153 33.8501 11.4555 33.0205 11.4555 32.0747C11.4555 31.1123 11.1153 30.291 10.435 29.6107C9.77133 28.9138 8.96659 28.5654 8.02082 28.5654H1.82352V35.584Z" fill="white"/>
<path d="M17.3304 28.665V35.584H26.0415V36.8285H16.0113V19.4063H25.917V20.6508H17.3304V27.4205H25.2948V28.665H17.3304Z" fill="white"/>
<path d="M30.6012 26.5494H35.5789C36.9893 26.5494 38.2005 27.0555 39.2127 28.0676C40.2248 29.0632 40.7309 30.2661 40.7309 31.6765C40.7309 33.0869 40.2248 34.2981 39.2127 35.3103C38.2171 36.3224 37.0059 36.8285 35.5789 36.8285H29.2821V19.4063H39.3122V20.6508H30.6012V26.5494ZM30.6012 35.584H35.5789C36.6242 35.584 37.5202 35.2024 38.2669 34.4391C39.0136 33.6759 39.3869 32.755 39.3869 31.6765C39.3869 30.6312 39.0136 29.7186 38.2669 28.9387C37.5202 28.1755 36.6242 27.7938 35.5789 27.7938H30.6012V35.584Z" fill="white"/>
<path d="M5.71612 45.6864C7.26918 45.6864 8.58497 46.2328 9.66348 47.3257C10.7564 48.4042 11.3028 49.7344 11.3028 51.3162C11.3028 52.898 10.7564 54.2354 9.66348 55.3283C8.58497 56.4068 7.26918 56.946 5.71612 56.946C4.69513 56.946 3.7748 56.7088 2.95513 56.2342C2.14984 55.7453 1.5243 55.0694 1.07851 54.2066V61.0228H0V45.9236H1.07851V48.4258C1.5243 47.563 2.14984 46.8943 2.95513 46.4197C3.7748 45.9308 4.69513 45.6864 5.71612 45.6864ZM2.3943 54.5733C3.28587 55.4649 4.37157 55.9107 5.65141 55.9107C6.91687 55.9107 7.99538 55.4649 8.88695 54.5733C9.77852 53.6817 10.2243 52.596 10.2243 51.3162C10.2243 50.0364 9.77852 48.9507 8.88695 48.0591C7.99538 47.1675 6.91687 46.7217 5.65141 46.7217C4.37157 46.7217 3.28587 47.1675 2.3943 48.0591C1.51711 48.9363 1.07851 50.022 1.07851 51.3162C1.07851 52.6104 1.51711 53.6961 2.3943 54.5733Z" fill="white"/>
<path d="M18.8423 56.946C17.2605 56.946 15.9159 56.4068 14.8087 55.3283C13.7158 54.2354 13.1693 52.898 13.1693 51.3162C13.1693 49.7344 13.7158 48.4042 14.8087 47.3257C15.9016 46.2328 17.2461 45.6864 18.8423 45.6864C20.4097 45.6864 21.7399 46.2328 22.8328 47.3257C23.9401 48.4042 24.4937 49.7344 24.4937 51.3162C24.4937 52.8836 23.9401 54.221 22.8328 55.3283C21.7255 56.4068 20.3954 56.946 18.8423 56.946ZM15.5852 54.5733C16.4768 55.4649 17.5625 55.9107 18.8423 55.9107C20.1078 55.9107 21.1863 55.4649 22.0778 54.5733C22.955 53.6961 23.3936 52.6104 23.3936 51.3162C23.3936 50.022 22.955 48.9363 22.0778 48.0591C21.1863 47.1675 20.1078 46.7217 18.8423 46.7217C17.5625 46.7217 16.4768 47.1675 15.5852 48.0591C14.708 48.9363 14.2694 50.022 14.2694 51.3162C14.2694 52.6104 14.708 53.6961 15.5852 54.5733Z" fill="white"/>
<path d="M29.3325 51.1005L35.3506 56.7088H33.8839L28.1677 51.4025V56.7088H27.0892V45.9236H28.1677V50.8201L33.625 45.9236H35.1349L29.3325 51.1005Z" fill="white"/>
<path d="M41.2953 45.6864C42.8771 45.6864 44.1569 46.2472 45.1348 47.3688C46.127 48.4905 46.6231 49.8207 46.6231 51.3593C46.6231 51.3881 46.6159 51.4744 46.6016 51.6182C46.6016 51.762 46.6016 51.8483 46.6016 51.877H36.8302C36.9596 53.085 37.4414 54.0628 38.2754 54.8106C39.1095 55.544 40.152 55.9107 41.4031 55.9107C42.2515 55.9107 42.9993 55.7381 43.6464 55.393C44.2935 55.0335 44.7896 54.5517 45.1348 53.9478L46.0839 54.5086C45.6381 55.2564 44.9982 55.8531 44.1641 56.2989C43.3444 56.7303 42.4169 56.946 41.3815 56.946C39.7134 56.946 38.3545 56.4212 37.3048 55.3714C36.2406 54.3073 35.7086 52.9555 35.7086 51.3162C35.7086 49.7056 36.2263 48.3683 37.2616 47.3041C38.3258 46.2256 39.6703 45.6864 41.2953 45.6864ZM41.2953 46.7217C40.0873 46.7217 39.0663 47.1028 38.2323 47.865C37.4126 48.6271 36.9453 49.6121 36.8302 50.8201H45.5015C45.3864 49.5402 44.9263 48.5408 44.121 47.8218C43.3157 47.0884 42.3738 46.7217 41.2953 46.7217Z" fill="white"/>
<path d="M47.3422 45.9236H56.2723V46.9806H52.3465V56.7088H51.268V46.9806H47.3422V45.9236Z" fill="white"/>
<path d="M107.849 39.7777C107.849 62.1727 70.9199 66.1127 45.738 70C99.1422 45.0581 43.444 8.12043 4.83535 5.85919C62.1423 6.38102 107.849 19.9919 107.849 39.7777Z" fill="#B061FF"/>
<path d="M99.103 41.331C99.103 44.8197 96.2748 47.6479 92.7861 47.6479C89.2973 47.6479 86.4692 44.8197 86.4692 41.331C86.4692 37.8423 89.2973 35.0141 92.7861 35.0141C96.2748 35.0141 99.103 37.8423 99.103 41.331Z" fill="#232323"/>
</g>
<g filter="url(#filter1_d_108_12)">
<path d="M80.5 12.5C80.5 16.366 77.366 19.5 73.5 19.5C69.634 19.5 66.5 16.366 66.5 12.5C66.5 8.63401 69.634 5.5 73.5 5.5C77.366 5.5 80.5 8.63401 80.5 12.5Z" stroke="#D3A7FF" stroke-width="7" shape-rendering="crispEdges"/>
</g>
<defs>
<filter id="filter0_i_108_12" x="0" y="5.85919" width="107.85" height="68.1408" filterUnits="userSpaceOnUse" color-interpolation-filters="sRGB">
<feFlood flood-opacity="0" result="BackgroundImageFix"/>
<feBlend mode="normal" in="SourceGraphic" in2="BackgroundImageFix" result="shape"/>
<feColorMatrix in="SourceAlpha" type="matrix" values="0 0 0 0 0 0 0 0 0 0 0 0 0 0 0 0 0 0 127 0" result="hardAlpha"/>
<feOffset dy="4"/>
<feGaussianBlur stdDeviation="2"/>
<feComposite in2="hardAlpha" operator="arithmetic" k2="-1" k3="1"/>
<feColorMatrix type="matrix" values="0 0 0 0 0.621667 0 0 0 0 0.621667 0 0 0 0 0.621667 0 0 0 0.18 0"/>
<feBlend mode="normal" in2="shape" result="effect1_innerShadow_108_12"/>
</filter>
<filter id="filter1_d_108_12" x="59" y="0" width="29" height="29" filterUnits="userSpaceOnUse" color-interpolation-filters="sRGB">
<feFlood flood-opacity="0" result="BackgroundImageFix"/>
<feColorMatrix in="SourceAlpha" type="matrix" values="0 0 0 0 0 0 0 0 0 0 0 0 0 0 0 0 0 0 127 0" result="hardAlpha"/>
<feOffset dy="2"/>
<feGaussianBlur stdDeviation="2"/>
<feComposite in2="hardAlpha" operator="out"/>
<feColorMatrix type="matrix" values="0 0 0 0 0 0 0 0 0 0 0 0 0 0 0 0 0 0 0.35 0"/>
<feBlend mode="normal" in2="BackgroundImageFix" result="effect1_dropShadow_108_12"/>
<feBlend mode="normal" in="SourceGraphic" in2="effect1_dropShadow_108_12" result="shape"/>
</filter>
</defs>
</svg>
