<svg width="108" height="70" viewBox="0 0 108 70" fill="none" xmlns="http://www.w3.org/2000/svg">
<g filter="url(#filter0_i_108_12)">
<path d="M5.71612 45.6864C7.26918 45.6864 8.58497 46.2328 9.66348 47.3257C10.7564 48.4042 11.3028 49.7344 11.3028 51.3162C11.3028 52.898 10.7564 54.2354 9.66348 55.3283C8.58497 56.4068 7.26918 56.946 5.71612 56.946C4.69513 56.946 3.7748 56.7088 2.95513 56.2342C2.14984 55.7453 1.5243 55.0694 1.07851 54.2066V61.0228H0V45.9236H1.07851V48.4258C1.5243 47.563 2.14984 46.8943 2.95513 46.4197C3.7748 45.9308 4.69513 45.6864 5.71612 45.6864ZM2.3943 54.5733C3.28587 55.4649 4.37157 55.9107 5.65141 55.9107C6.91687 55.9107 7.99538 55.4649 8.88695 54.5733C9.77852 53.6817 10.2243 52.596 10.2243 51.3162C10.2243 50.0364 9.77852 48.9507 8.88695 48.0591C7.99538 47.1675 6.91687 46.7217 5.65141 46.7217C4.37157 46.7217 3.28587 47.1675 2.3943 48.0591C1.51711 48.9363 1.07851 50.022 1.07851 51.3162C1.07851 52.6104 1.51711 53.6961 2.3943 54.5733Z" fill="white"/>
<path d="M29.3325 51.1005L35.3506 56.7088H33.8839L28.1677 51.4025V56.7088H27.0892V45.9236H28.1677V50.8201L33.625 45.9236H35.1349L29.3325 51.1005Z" fill="white"/>
<path d="M41.2953 45.6864C42.8771 45.6864 44.1569 46.2472 45.1348 47.3688C46.127 48.4905 46.6231 49.8207 46.6231 51.3593C46.6231 51.3881 46.6159 51.4744 46.6016 51.6182C46.6016 51.762 46.6016 51.8483 46.6016 51.877H36.8302C36.9596 53.085 37.4414 54.0628 38.2754 54.8106C39.1095 55.544 40.152 55.9107 41.4031 55.9107C42.2515 55.9107 42.9993 55.7381 43.6464 55.393C44.2935 55.0335 44.7896 54.5517 45.1348 53.9478L46.0839 54.5086C45.6381 55.2564 44.9982 55.8531 44.1641 56.2989C43.3444 56.7303 42.4169 56.946 41.3815 56.946C39.7134 56.946 38.3545 56.4212 37.3048 55.3714C36.2406 54.3073 35.7086 52.9555 35.7086 51.3162C35.7086 49.7056 36.2262 48.3683 37.2616 47.3041C38.3258 46.2256 39.6703 45.6864 41.2953 45.6864ZM41.2953 46.7217C40.0873 46.7217 39.0663 47.1028 38.2323 47.865C37.4126 48.6271 36.9453 49.6121 36.8302 50.8201H45.5015C45.3864 49.5402 44.9263 48.5408 44.121 47.8218C43.3157 47.0884 42.3738 46.7217 41.2953 46.7217Z" fill="white"/>
<path d="M47.3422 45.9236H56.2723V46.9806H52.3465V56.7088H51.268V46.9806H47.3422V45.9236Z" fill="white"/>
<path d="M107.849 39.7777C107.849 62.1727 70.9199 66.1127 45.738 70C99.1422 45.0581 43.444 8.12043 4.83535 5.85919C62.1423 6.38102 107.849 19.9919 107.849 39.7777Z" fill="#B061FF"/>
<path d="M99.103 41.331C99.103 44.8197 96.2748 47.6479 92.7861 47.6479C89.2973 47.6479 86.4692 44.8197 86.4692 41.331C86.4692 37.8423 89.2973 35.0141 92.7861 35.0141C96.2748 35.0141 99.103 37.8423 99.103 41.331Z" fill="#232323"/>
</g>
<g filter="url(#filter1_d_108_12)">
</g>
<path d="M17.8333 44.4445H18.8973L20.8733 41.7H19.5705L17.8333 44.4445ZM18.8105 57C17.2181 57 15.8646 56.4598 14.7499 55.3792C13.6497 54.2843 13.0996 52.9445 13.0996 51.3598C13.0996 49.775 13.6497 48.4424 14.7499 47.3619C15.8646 46.267 17.2181 45.7195 18.8105 45.7195C20.3884 45.7195 21.7274 46.267 22.8276 47.3619C23.9423 48.4424 24.4996 49.775 24.4996 51.3598C24.4996 52.9445 23.9423 54.2843 22.8276 55.3792C21.7274 56.4598 20.3884 57 18.8105 57ZM15.5316 54.6229C16.4291 55.5161 17.5221 55.9627 18.8105 55.9627C20.0988 55.9627 21.1846 55.5161 22.0676 54.6229C22.9507 53.7297 23.3922 52.642 23.3922 51.3598C23.3922 50.0776 22.9507 48.9898 22.0676 48.0966C21.1846 47.2034 20.0988 46.7568 18.8105 46.7568C17.5221 46.7568 16.4291 47.2034 15.5316 48.0966C14.6486 48.9898 14.207 50.0776 14.207 51.3598C14.207 52.642 14.6486 53.7297 15.5316 54.6229Z" fill="white"/>
<path d="M12.6198 30.744C14.4971 31.3627 15.4358 32.6427 15.4358 34.584C15.4358 35.864 15.0091 36.92 14.1558 37.752C13.3238 38.584 12.1078 39 10.5078 39H2.7638V23H9.89981C11.4145 23 12.5878 23.3947 13.4198 24.184C14.2518 24.9733 14.6678 25.976 14.6678 27.192C14.6678 28.8987 13.9851 30.0827 12.6198 30.744ZM9.89981 24.568H4.3638V30.104H9.89981C10.9238 30.104 11.7025 29.8587 12.2358 29.368C12.7691 28.8773 13.0358 28.184 13.0358 27.288C13.0358 26.4347 12.7585 25.7733 12.2038 25.304C11.6705 24.8133 10.9025 24.568 9.89981 24.568ZM10.5078 37.432C11.5745 37.432 12.3958 37.176 12.9718 36.664C13.5478 36.152 13.8358 35.4373 13.8358 34.52C13.8358 33.624 13.5371 32.9307 12.9398 32.44C12.3638 31.928 11.5531 31.672 10.5078 31.672H4.3638V37.432H10.5078ZM26.1826 22.648C28.5292 22.648 30.4279 23.48 31.8786 25.144C33.3506 26.808 34.0866 28.7813 34.0866 31.064C34.0866 31.1493 34.0759 31.2773 34.0546 31.448C34.0546 31.6187 34.0546 31.7467 34.0546 31.832H19.5586C19.7506 33.624 20.4652 35.0747 21.7026 36.184C22.9612 37.272 24.5079 37.816 26.3426 37.816C27.6226 37.816 28.7426 37.5493 29.7026 37.016C30.6626 36.4827 31.3879 35.7787 31.8786 34.904L33.2866 35.736C32.6252 36.8453 31.6866 37.7307 30.4706 38.392C29.2546 39.032 27.8679 39.352 26.3106 39.352C23.8572 39.352 21.8412 38.5733 20.2626 37.016C18.6839 35.4373 17.8946 33.432 17.8946 31C17.8946 28.6107 18.6626 26.6267 20.1986 25.048C21.7559 23.448 23.7506 22.648 26.1826 22.648ZM26.1826 24.184C24.3692 24.184 22.8546 24.7493 21.6386 25.88C20.4226 27.0107 19.7292 28.472 19.5586 30.264H32.4226C32.2519 28.3653 31.5692 26.8827 30.3746 25.816C29.2012 24.728 27.8039 24.184 26.1826 24.184ZM44.8023 39.384C42.4983 39.384 40.5783 38.6267 39.0423 37.112C37.5063 35.576 36.7383 33.592 36.7383 31.16C36.7383 28.4933 37.1223 26.4347 37.8903 24.984C38.6796 23.512 40.2903 22.1787 42.7223 20.984C43.1916 20.7707 43.7463 20.5253 44.3863 20.248C45.0263 19.9707 45.5383 19.7573 45.9223 19.608C46.3276 19.4373 46.7543 19.2347 47.2023 19C47.6716 18.744 48.045 18.4987 48.3223 18.264C48.5996 18.0293 48.845 17.7413 49.0583 17.4C49.2716 17.0373 49.4103 16.632 49.4743 16.184L50.7543 16.92C50.6476 17.5173 50.445 18.04 50.1463 18.488C49.869 18.936 49.4423 19.352 48.8663 19.736C48.3116 20.0987 47.821 20.3867 47.3943 20.6C46.989 20.8133 46.349 21.1013 45.4743 21.464C44.5996 21.8267 43.9703 22.0933 43.5863 22.264C42.0076 22.968 40.845 23.736 40.0983 24.568C39.373 25.4 38.8823 26.52 38.6263 27.928C39.373 26.7547 40.3436 25.88 41.5383 25.304C42.733 24.728 43.9383 24.44 45.1543 24.44C47.2876 24.44 49.0583 25.144 50.4663 26.552C51.8743 27.96 52.5783 29.752 52.5783 31.928C52.5783 34.0827 51.8423 35.864 50.3703 37.272C48.9196 38.68 47.0636 39.384 44.8023 39.384ZM44.8023 37.784C46.5943 37.784 48.0663 37.24 49.2183 36.152C50.3703 35.0427 50.9463 33.6347 50.9463 31.928C50.9463 30.2 50.3916 28.7813 49.2823 27.672C48.173 26.5627 46.733 26.008 44.9623 26.008C43.341 26.008 41.8796 26.52 40.5783 27.544C39.2983 28.568 38.5943 29.8907 38.4663 31.512C38.4663 33.3467 39.0636 34.8507 40.2583 36.024C41.453 37.1973 42.9676 37.784 44.8023 37.784Z" fill="white"/>
<defs>
<filter id="filter0_i_108_12" x="0" y="5.85919" width="107.85" height="68.1408" filterUnits="userSpaceOnUse" color-interpolation-filters="sRGB">
<feFlood flood-opacity="0" result="BackgroundImageFix"/>
<feBlend mode="normal" in="SourceGraphic" in2="BackgroundImageFix" result="shape"/>
<feColorMatrix in="SourceAlpha" type="matrix" values="0 0 0 0 0 0 0 0 0 0 0 0 0 0 0 0 0 0 127 0" result="hardAlpha"/>
<feOffset dy="4"/>
<feGaussianBlur stdDeviation="2"/>
<feComposite in2="hardAlpha" operator="arithmetic" k2="-1" k3="1"/>
<feColorMatrix type="matrix" values="0 0 0 0 0.621667 0 0 0 0 0.621667 0 0 0 0 0.621667 0 0 0 0.18 0"/>
<feBlend mode="normal" in2="shape" result="effect1_innerShadow_108_12"/>
</filter>
<filter id="filter1_d_108_12" x="59" y="0" width="29" height="29" filterUnits="userSpaceOnUse" color-interpolation-filters="sRGB">
<feFlood flood-opacity="0" result="BackgroundImageFix"/>
<feColorMatrix in="SourceAlpha" type="matrix" values="0 0 0 0 0 0 0 0 0 0 0 0 0 0 0 0 0 0 127 0" result="hardAlpha"/>
<feOffset dy="2"/>
<feGaussianBlur stdDeviation="2"/>
<feComposite in2="hardAlpha" operator="out"/>
<feColorMatrix type="matrix" values="0 0 0 0 0 0 0 0 0 0 0 0 0 0 0 0 0 0 0.35 0"/>
<feBlend mode="normal" in2="BackgroundImageFix" result="effect1_dropShadow_108_12"/>
<feBlend mode="normal" in="SourceGraphic" in2="effect1_dropShadow_108_12" result="shape"/>
</filter>
</defs>
</svg>
