<?xml version="1.0" standalone="no"?>
<!DOCTYPE svg PUBLIC "-//W3C//DTD SVG 20010904//EN"
 "http://www.w3.org/TR/2001/REC-SVG-20010904/DTD/svg10.dtd">
<svg version="1.0" xmlns="http://www.w3.org/2000/svg"
 width="864.000000pt" height="864.000000pt" viewBox="0 0 864.000000 864.000000"
 preserveAspectRatio="xMidYMid meet">
<metadata>
Created by potrace 1.14, written by Peter Selinger 2001-2017
</metadata>
<g transform="translate(0.000000,864.000000) scale(0.100000,-0.100000)"
fill="#000000" stroke="none">
<path d="M5820 6960 c0 -3 -8 -6 -17 -6 -21 -1 -96 -11 -134 -19 -42 -8 -168
-63 -221 -95 -27 -17 -54 -27 -60 -24 -6 4 -8 3 -5 -3 4 -6 -8 -22 -26 -36
-52 -40 -117 -105 -117 -117 0 -6 -4 -8 -10 -5 -5 3 -10 -1 -10 -9 0 -8 -10
-22 -22 -30 -12 -9 -19 -16 -15 -16 5 0 -1 -13 -13 -30 -42 -59 -99 -196 -102
-247 -1 -7 -4 -13 -8 -13 -4 0 -7 -12 -8 -27 0 -16 -3 -37 -6 -48 -2 -11 -5
-26 -5 -32 -1 -12 -51 -15 -51 -3 0 3 -10 6 -22 7 -23 1 -32 3 -113 18 -40 8
-60 12 -105 21 -14 3 -34 7 -45 9 -11 2 -45 8 -75 14 -47 9 -110 20 -307 55
-97 17 -334 55 -388 62 -22 3 -65 9 -95 14 -30 5 -75 12 -100 15 -25 3 -61 8
-80 11 -19 3 -50 7 -68 9 -18 2 -49 7 -70 9 -53 8 -109 15 -172 22 -30 3 -66
7 -80 9 -14 2 -43 6 -65 8 -22 3 -67 8 -100 11 -33 4 -76 8 -95 11 -19 2 -62
7 -95 10 -33 3 -78 8 -100 10 -89 11 -295 28 -585 51 -168 12 -198 15 -270 18
-41 3 -109 7 -150 10 -41 3 -122 8 -180 11 -58 2 -161 7 -230 10 -352 16 -886
28 -877 19 4 -4 30 -8 59 -10 29 -1 76 -5 103 -9 62 -7 201 -25 237 -31 16 -2
40 -6 55 -8 16 -3 42 -7 58 -10 17 -3 44 -7 60 -10 69 -12 235 -46 300 -60 39
-9 79 -18 90 -20 11 -2 40 -9 65 -16 25 -7 54 -14 65 -16 11 -2 76 -20 145
-39 69 -20 134 -38 145 -40 11 -3 31 -9 45 -14 24 -9 134 -42 155 -47 30 -8
253 -86 267 -94 10 -6 23 -10 28 -10 23 0 393 -150 558 -226 41 -19 76 -34 78
-34 3 0 89 -42 192 -94 166 -83 262 -134 385 -204 20 -12 53 -31 72 -42 19
-10 85 -51 147 -90 62 -39 122 -77 133 -83 10 -7 25 -18 33 -24 7 -7 17 -13
21 -13 4 0 19 -9 32 -20 12 -12 39 -31 59 -42 19 -12 37 -25 40 -28 3 -3 21
-17 40 -30 19 -14 42 -30 50 -37 102 -80 226 -178 230 -183 3 -3 43 -39 89
-80 133 -118 232 -219 381 -390 179 -205 365 -540 426 -767 40 -152 48 -214
48 -378 1 -126 -3 -177 -19 -255 -3 -14 -8 -38 -10 -54 -3 -16 -10 -37 -16
-47 -5 -11 -7 -19 -4 -19 3 0 -1 -15 -8 -32 -8 -18 -15 -37 -17 -43 -22 -70
-103 -230 -162 -319 -29 -44 -57 -87 -63 -95 -5 -9 -12 -18 -15 -21 -3 -3 -29
-34 -59 -70 -48 -58 -228 -240 -292 -296 -149 -129 -440 -331 -634 -439 -124
-68 -179 -98 -310 -164 -77 -39 -135 -71 -129 -71 7 0 47 7 90 15 44 8 97 16
119 19 22 3 51 7 65 10 14 2 46 7 71 10 25 4 57 8 70 11 98 15 248 38 269 40
14 1 39 5 55 8 17 4 44 9 60 11 94 14 123 18 150 23 57 9 70 11 120 18 28 3
57 8 65 10 19 5 63 13 115 19 22 3 65 10 95 16 30 6 71 13 90 16 19 3 49 8 65
11 17 3 39 7 50 9 11 2 34 6 50 9 28 5 106 20 165 31 142 26 508 103 620 129
284 67 581 151 800 227 63 22 120 41 125 42 6 2 17 6 25 9 57 24 136 51 143
49 4 -1 7 3 7 8 0 6 6 10 14 10 12 0 38 10 163 66 21 10 40 18 43 19 15 4 170
82 203 102 20 13 37 20 37 17 0 -4 6 -1 14 5 22 19 178 111 188 111 4 0 8 4 8
8 0 5 10 14 23 19 12 6 31 18 42 27 11 8 55 43 98 76 148 116 251 217 341 337
61 82 144 213 149 236 1 7 5 14 8 17 7 6 59 135 64 159 2 9 10 36 18 61 35
104 51 224 51 380 1 151 -7 208 -47 335 -40 131 -118 270 -239 430 -80 104
-308 312 -463 421 -38 27 -71 52 -73 56 -2 5 -7 8 -12 8 -5 0 -57 31 -117 68
-149 95 -382 218 -568 302 -115 52 -140 63 -150 66 -32 9 -171 70 -173 77 -2
4 -7 5 -12 2 -5 -3 -14 0 -22 7 -7 7 -24 15 -37 16 -14 2 -34 10 -46 18 -12 8
-25 11 -28 7 -12 -12 -7 5 20 67 19 46 30 60 42 55 15 -5 15 -4 0 7 -15 12
-15 23 -2 58 4 8 5 19 4 24 -4 18 11 46 21 40 7 -5 8 -2 2 7 -12 19 -12 33 1
41 6 5 5 8 -3 8 -7 0 -10 5 -7 11 8 12 8 81 0 154 -9 88 -26 156 -57 229 -17
39 -31 79 -31 88 -1 9 -5 14 -9 12 -6 -4 -38 47 -38 61 0 5 -14 20 -100 110
-122 127 -295 220 -450 241 -25 3 -48 11 -52 18 -5 7 -8 7 -8 1 0 -6 -13 -11
-30 -10 -16 0 -30 2 -30 5 0 3 -20 5 -45 5 -25 0 -45 -2 -45 -5z m66 -576 c5
13 14 15 43 10 20 -4 39 -12 43 -18 4 -6 8 -8 8 -3 0 4 17 -1 38 -12 40 -20
76 -58 105 -108 17 -31 17 -32 -3 -28 -11 2 -18 0 -15 -6 4 -5 10 -7 14 -5 17
11 31 -14 35 -62 3 -38 1 -50 -7 -45 -9 5 -9 3 0 -8 13 -16 8 -54 -10 -76 -5
-7 -6 -13 -3 -13 9 0 -32 -61 -51 -76 -10 -9 -23 -9 -48 -1 -19 5 -33 13 -31
16 2 3 -8 7 -22 7 -30 2 -81 12 -94 20 -4 3 -16 7 -25 9 -42 8 -118 30 -123
35 -3 3 -14 6 -25 8 -68 11 -105 23 -106 36 -6 46 -4 83 5 95 8 11 8 13 0 8
-8 -5 -8 4 -1 33 6 21 15 37 19 34 5 -3 6 -9 4 -13 -3 -4 1 -8 9 -8 11 0 11 4
-2 23 -14 21 -12 25 35 73 38 38 54 49 70 44 13 -3 22 -1 22 6 0 7 -5 9 -12 5
-7 -4 -8 -3 -4 5 4 7 13 10 19 8 6 -2 22 2 36 9 20 10 28 10 47 -3 22 -14 24
-14 30 1z m-6 6 c0 -5 -7 -7 -15 -4 -8 4 -15 8 -15 10 0 2 7 4 15 4 8 0 15 -4
15 -10z"/>
<path d="M5820 6373 c0 -19 21 -27 33 -13 9 10 9 11 -2 5 -8 -4 -17 -2 -22 6
-6 9 -9 10 -9 2z"/>
<path d="M5910 6359 c0 -5 5 -7 10 -4 6 3 10 8 10 11 0 2 -4 4 -10 4 -5 0 -10
-5 -10 -11z"/>
<path d="M5960 6351 c0 -6 4 -13 10 -16 6 -3 7 1 4 9 -7 18 -14 21 -14 7z"/>
<path d="M5774 6339 c-4 -8 -3 -9 4 -5 7 4 12 1 12 -8 0 -8 4 -17 9 -20 5 -4
7 3 4 14 -7 26 -19 34 -29 19z"/>
<path d="M5878 6328 c2 -10 6 -18 7 -18 1 0 5 8 7 18 3 11 0 19 -7 19 -7 0
-10 -8 -7 -19z"/>
<path d="M5856 6327 c3 -10 9 -15 12 -12 3 3 0 11 -7 18 -10 9 -11 8 -5 -6z"/>
<path d="M5735 6320 c-3 -6 1 -7 9 -4 18 7 21 14 7 14 -6 0 -13 -4 -16 -10z"/>
<path d="M6010 6319 c0 -5 5 -7 10 -4 6 3 10 8 10 11 0 2 -4 4 -10 4 -5 0 -10
-5 -10 -11z"/>
<path d="M6035 6311 c-3 -5 0 -13 6 -17 8 -5 9 -3 4 6 -6 10 -4 12 9 7 10 -4
15 -3 11 3 -8 13 -22 13 -30 1z"/>
<path d="M5745 6300 c-3 -6 1 -7 9 -4 18 7 21 14 7 14 -6 0 -13 -4 -16 -10z"/>
<path d="M5905 6300 c-3 -6 1 -7 9 -4 18 7 21 14 7 14 -6 0 -13 -4 -16 -10z"/>
<path d="M5940 6304 c0 -1 6 -7 14 -13 10 -9 15 -8 19 2 3 8 -3 13 -14 13 -11
0 -19 -1 -19 -2z"/>
<path d="M5696 6286 c2 -6 13 -12 24 -12 23 0 17 12 -9 19 -12 3 -18 0 -15 -7z"/>
<path d="M5766 6285 c-11 -8 -15 -15 -9 -15 6 0 16 7 23 15 16 19 11 19 -14 0z"/>
<path d="M5849 6283 c-13 -16 -12 -17 4 -4 9 7 17 15 17 17 0 8 -8 3 -21 -13z"/>
<path d="M5800 6286 c0 -2 8 -10 18 -17 15 -13 16 -12 3 4 -13 16 -21 21 -21
13z"/>
<path d="M5920 6286 c0 -2 8 -10 18 -17 15 -13 16 -12 3 4 -13 16 -21 21 -21
13z"/>
<path d="M5674 6266 c1 -8 5 -18 8 -22 4 -3 5 1 4 10 -1 8 -5 18 -8 22 -4 3
-5 -1 -4 -10z"/>
<path d="M5999 6253 c-13 -16 -12 -17 4 -4 9 7 17 15 17 17 0 8 -8 3 -21 -13z"/>
<path d="M6030 6266 c0 -2 7 -7 16 -10 8 -3 12 -2 9 4 -6 10 -25 14 -25 6z"/>
<path d="M5806 6238 c3 -5 10 -6 15 -3 13 9 11 12 -6 12 -8 0 -12 -4 -9 -9z"/>
<path d="M5914 6236 c1 -8 5 -18 8 -22 4 -3 5 1 4 10 -1 8 -5 18 -8 22 -4 3
-5 -1 -4 -10z"/>
<path d="M5639 6173 c-13 -16 -12 -17 4 -4 9 7 17 15 17 17 0 8 -8 3 -21 -13z"/>
<path d="M5846 6182 c-3 -5 1 -9 9 -9 8 0 12 4 9 9 -3 4 -7 8 -9 8 -2 0 -6 -4
-9 -8z"/>
<path d="M6109 6083 c-13 -16 -12 -17 4 -4 9 7 17 15 17 17 0 8 -8 3 -21 -13z"/>
<path d="M5630 6065 c0 -7 30 -13 34 -7 3 4 -4 9 -15 9 -10 1 -19 0 -19 -2z"/>
<path d="M5954 6000 c0 -13 4 -16 10 -10 7 7 7 13 0 20 -6 6 -10 3 -10 -10z"/>
<path d="M6716 5913 c-6 -14 -5 -15 5 -6 7 7 10 15 7 18 -3 3 -9 -2 -12 -12z"/>
<path d="M6669 5803 c-13 -16 -12 -17 4 -4 9 7 17 15 17 17 0 8 -8 3 -21 -13z"/>
<path d="M6709 5763 c-13 -16 -12 -17 4 -4 9 7 17 15 17 17 0 8 -8 3 -21 -13z"/>
<path d="M39 5537 c0 -18 0 -68 1 -112 1 -44 1 -87 1 -95 -1 -54 -2 -229 0
-236 1 -5 1 -13 0 -19 -1 -5 -2 -50 -1 -100 1 -49 1 -97 1 -105 0 -8 -1 -67
-1 -131 -1 -63 0 -119 1 -125 1 -5 1 -13 0 -19 -1 -5 -2 -50 -1 -100 1 -49 1
-94 1 -100 0 -5 0 -50 -1 -100 -1 -49 -1 -97 -1 -106 1 -15 34 -16 349 -13
372 3 372 3 372 16 0 4 7 8 16 8 22 0 81 36 122 74 38 35 97 116 85 116 -4 0
-3 4 3 8 23 14 40 120 33 192 -13 120 -78 221 -181 279 l-48 28 33 23 c17 13
37 31 43 39 7 9 23 29 37 45 13 15 32 54 42 86 60 199 -49 404 -249 464 -35
11 -119 14 -351 15 l-305 0 -1 -32z m652 -89 c142 -62 200 -221 135 -365 -16
-35 -34 -63 -40 -63 -6 0 -16 -8 -23 -18 -6 -11 -33 -29 -60 -42 -46 -22 -58
-23 -300 -25 -167 0 -254 3 -256 10 -2 8 -1 518 2 521 1 1 115 1 254 0 207 -2
259 -5 288 -18z m19 -623 c81 -18 176 -112 198 -195 5 -19 4 -130 -1 -150 -18
-72 -80 -145 -156 -182 -44 -22 -56 -22 -325 -23 l-279 0 -1 245 c-1 135 0
261 2 280 l4 35 261 -1 c144 0 278 -4 297 -9z"/>
<path d="M1279 5542 c4 -15 4 -44 1 -64 -4 -21 -5 -40 -2 -43 5 -5 6 -77 2
-100 -1 -5 -1 -14 0 -20 1 -5 1 -28 1 -50 -1 -22 -1 -46 -1 -52 0 -7 0 -33 0
-58 0 -25 0 -52 0 -60 0 -8 0 -35 0 -60 0 -25 0 -51 0 -57 0 -7 0 -58 0 -113
1 -84 1 -182 1 -250 0 -8 0 -44 0 -80 0 -36 0 -72 0 -80 0 -8 0 -43 0 -77 0
-35 0 -81 1 -104 1 -22 -1 -44 -4 -50 -3 -5 -2 -18 1 -30 6 -20 11 -20 404
-20 276 0 397 3 398 10 5 47 4 72 -2 81 -5 6 -132 10 -348 10 -230 -1 -341 3
-342 10 -1 13 -1 493 0 521 1 20 5 20 315 20 347 -1 324 -6 321 64 l-2 35
-316 0 c-310 0 -317 0 -318 20 -1 11 -2 133 -2 271 l-2 251 315 1 c173 0 329
1 345 1 30 1 31 2 30 49 l-1 47 -401 2 -401 2 7 -27z"/>
<path d="M2343 4871 l0 -699 296 3 c321 3 340 5 426 62 45 30 156 143 140 143
-3 0 2 11 11 24 27 42 42 122 39 206 -2 67 -8 91 -35 146 -56 115 -181 215
-287 232 -21 3 -138 6 -260 6 l-223 1 -1 113 c0 141 0 204 0 290 l1 69 318 0
c174 1 331 2 348 2 30 1 31 2 29 49 l-1 47 -401 2 -400 2 0 -698z m622 0 c68
-30 137 -105 165 -178 18 -47 21 -71 17 -129 -9 -118 -70 -208 -175 -260 l-57
-28 -232 -1 -233 -2 -1 46 c0 48 0 521 1 557 0 20 4 20 233 18 214 -1 236 -3
282 -23z"/>
<path d="M355 3454 c-101 -26 -180 -79 -240 -160 l-30 -41 0 96 0 96 -43 1
-42 1 2 -605 3 -606 28 1 c15 1 33 1 40 2 11 1 13 53 13 262 -1 143 2 263 6
266 5 2 8 0 8 -4 0 -11 26 -45 64 -85 49 -50 120 -88 196 -105 33 -7 159 -7
190 0 120 28 195 78 272 180 89 117 107 312 42 454 -18 40 -87 129 -116 151
-9 7 -23 19 -31 26 -21 21 -117 63 -167 72 -67 12 -142 11 -195 -2z m250 -104
c67 -31 150 -116 181 -187 42 -94 38 -231 -10 -321 -28 -53 -117 -135 -175
-162 -47 -21 -69 -25 -155 -25 -86 1 -108 4 -146 24 -100 52 -175 139 -200
231 -14 47 -15 142 -4 194 24 114 144 238 257 267 58 15 197 3 252 -21z"/>
<path d="M1425 3459 c-113 -21 -208 -80 -287 -177 -52 -65 -89 -192 -84 -292
12 -234 194 -414 430 -424 136 -6 249 37 340 130 65 66 71 74 92 120 50 118
56 265 13 364 -13 30 -27 57 -31 58 -4 2 -8 9 -8 16 0 21 -148 164 -170 164
-3 1 -18 6 -35 13 -16 7 -32 13 -35 14 -70 19 -163 25 -225 14z m236 -112 c70
-33 143 -105 177 -177 35 -72 41 -202 13 -278 -53 -145 -173 -232 -326 -240
-94 -4 -149 10 -221 58 -100 66 -155 166 -159 293 -5 168 87 303 246 361 67
25 198 16 270 -17z"/>
<path d="M3200 3455 c-84 -18 -149 -54 -211 -115 -68 -67 -102 -131 -122 -227
-22 -106 -12 -201 32 -296 73 -158 212 -247 391 -250 112 -1 166 10 248 52 43
22 142 111 142 128 0 14 -31 39 -57 47 -13 4 -23 3 -23 -2 0 -22 -91 -98 -136
-115 -156 -56 -304 -31 -412 70 -43 40 -91 132 -99 189 l-5 34 392 0 392 0 -6
73 c-6 86 -11 106 -41 172 -51 112 -147 201 -252 231 -69 20 -164 24 -233 9z
m245 -105 c59 -29 126 -93 153 -146 23 -46 46 -134 37 -143 -4 -3 -159 -6
-346 -6 l-341 0 5 30 c13 82 43 141 100 196 37 37 137 97 137 84 0 -3 8 -2 18
4 9 5 55 9 102 7 66 -2 96 -8 135 -26z"/>
<path d="M2168 3437 c-2 -7 -3 -201 -3 -432 l1 -420 44 0 45 0 0 203 c0 111 4
202 8 203 7 0 124 -105 268 -242 163 -155 175 -164 234 -166 64 -1 64 1 -13
72 -30 27 -71 66 -92 85 -20 19 -68 64 -106 100 -39 36 -101 94 -139 129 l-68
64 24 20 c13 10 62 54 108 96 101 91 88 80 186 166 101 89 135 121 135 127 0
3 -25 5 -55 4 -60 -1 -71 -8 -193 -123 -25 -24 -47 -43 -48 -43 -2 0 -16 -12
-32 -27 -16 -16 -64 -59 -107 -98 -43 -38 -84 -76 -92 -83 -17 -17 -16 -29
-17 188 l-1 185 -42 1 c-24 2 -43 -3 -45 -9z"/>
<path d="M3793 3437 c-3 -5 -6 -24 -7 -42 l-1 -34 60 -1 c33 -1 74 0 90 0 17
1 36 2 43 1 20 -2 40 -2 78 0 19 0 37 -1 39 -3 3 -2 6 -177 7 -388 l3 -384 41
-4 41 -3 1 387 c1 304 4 389 14 395 7 5 14 4 16 -1 2 -5 9 -7 17 -4 23 9 165
10 165 1 0 -5 5 -5 11 -1 6 3 28 6 49 6 34 -1 38 2 42 26 9 62 30 59 -353 59
-195 -1 -353 -5 -356 -10z"/>
</g>
</svg>
